<svg xmlns="http://www.w3.org/2000/svg" width="199" height="31" fill="none"><g clip-path="url(#clip0_58_924)"><path d="M51.502 9.18h1.8v19.066h-1.8V9.18zm4.077 5.28h1.667v2.107h.053c.941-1.387 2.445-2.4 4.65-2.4 2.577 0 4.433 1.52 4.433 4.293v9.789h-1.67V18.62c0-2.08-1.21-3.04-3.172-3.04-2.364 0-4.299 1.653-4.299 3.92v8.746H55.58V14.46zm11.463 0h1.773l2.982 8.747c.457 1.334 1.129 3.492 1.129 3.492h.053s.699-2.16 1.156-3.492l3.118-8.747h1.692L73.92 28.246h-1.962L67.042 14.46zm11.818 6.907c0-4.134 2.499-7.23 6.341-7.23 4.46 0 5.993 3.652 5.966 7.518h-10.59c.08 3.093 1.584 5.52 4.756 5.52 2.31 0 3.52-1.224 4.056-3.093h1.612c-.592 2.72-2.553 4.506-5.67 4.506-4.16.005-6.47-3.089-6.47-7.221zm10.56-1.014c-.081-2.72-1.37-4.853-4.219-4.853-2.821 0-4.298 2.107-4.595 4.853h8.814zm2.392 3.6h1.692c.243 2.32 1.855 3.253 4.085 3.253 2.31 0 3.52-1.066 3.52-2.67 0-1.52-.86-2.026-3.708-2.67-2.822-.64-5.08-1.306-5.08-3.972 0-2.294 1.99-3.733 4.838-3.733 3.304 0 4.837 1.653 5.156 4.079h-1.663c-.189-1.787-1.424-2.72-3.493-2.72-2.15 0-3.171 1.013-3.171 2.294 0 1.573 1.317 1.946 3.977 2.558 2.794.586 4.81 1.28 4.81 4.133 0 2.454-1.989 4.107-5.213 4.107-3.708.008-5.589-1.993-5.75-4.659zm13.623 1.92V15.82h-2.096v-1.36h2.096v-4.24h1.666v4.24h2.578v1.36h-2.578v9.79c0 .986.456 1.306 1.345 1.306a3.223 3.223 0 0 0 1.101-.213h.081v1.408a4.5 4.5 0 0 1-1.532.24c-1.586.002-2.661-.718-2.661-2.478z" fill="#D89F3F"/><path d="M117.617 9.18h4.89l6.932 19.066h-4.997l-1.129-3.44h-6.718l-1.102 3.44h-4.783l6.907-19.065zm4.595 12.237l-1.45-4.613c-.323-.987-.752-2.693-.752-2.693h-.054s-.457 1.706-.785 2.693l-1.477 4.613h4.518zm7.887-12.236h4.434v19.065h-4.434V9.18zm10.169 17.332h-.056v1.733h-4.191V9.18h4.379v6.959h.081c.86-1.173 2.042-1.946 3.923-1.946 3.574 0 5.885 3.115 5.885 7.23 0 4.534-2.311 7.253-5.858 7.253-1.825-.004-3.303-.75-4.163-2.164zm5.589-5.117c0-2.348-.94-3.894-2.714-3.894-1.935 0-2.875 1.68-2.875 3.92 0 2.266 1.129 3.814 2.929 3.814 1.723-.003 2.66-1.47 2.66-3.843v.003zm5.294-.003c0-4.08 2.875-7.199 7.062-7.199 1.962 0 3.52.64 4.703 1.706 1.639 1.493 2.445 3.867 2.418 6.64h-9.888c.269 1.84 1.29 2.986 3.09 2.986 1.155 0 1.906-.506 2.284-1.36h4.277c-.296 1.224-1.102 2.4-2.311 3.226-1.156.8-2.553 1.254-4.299 1.254-4.541 0-7.336-3.12-7.336-7.253zm9.753-1.44c-.162-1.627-1.183-2.67-2.606-2.67-1.666 0-2.526 1.04-2.822 2.67h5.428zm5.375-5.36h4.192v2.134h.081c.967-1.626 2.095-2.347 3.762-2.347.402 0 .673.026.86.111v3.733h-.112c-2.691-.372-4.407.933-4.407 3.894v6.132h-4.381l.005-13.657zm11.833 10.053v-7.333h-1.827v-2.72h1.827v-4.319h4.272v4.32h2.499v2.72h-2.499v6.399c0 1.066.591 1.335 1.531 1.335.377 0 .806-.027.968-.027v3.172c-.376.112-1.209.214-2.392.214-2.552-.001-4.379-.828-4.379-3.761zm7.345-.213c0-3.013 2.417-3.92 5.268-4.293 2.578-.32 3.494-.587 3.494-1.52 0-.88-.56-1.467-1.881-1.467-1.398 0-2.096.614-2.231 1.76h-4.035c.112-2.533 2.069-4.692 6.235-4.692 2.069 0 3.466.372 4.46 1.119 1.183.853 1.747 2.187 1.747 3.893v6.876c0 1.092.112 1.706.484 1.946v.186h-4.246c-.216-.292-.35-.826-.457-1.52h-.052c-.806 1.148-2.018 1.867-4.085 1.867-2.74.005-4.701-1.461-4.701-4.155zm8.868-1.066v-1.628c-.561.294-1.371.508-2.258.721-1.693.373-2.391.8-2.391 1.84 0 1.092.806 1.52 1.881 1.52 1.639 0 2.768-.987 2.768-2.453zM27.233 8.02L22.565 0l-4.667 8.021-4.06-2.322 1.877 13.404-6.34-6.738-.627 3.914-7.86-1.243 2.846 7.377L0 23.828l6.19 3.852-.018.007L5.04 31l2.25-2.636 5.64-6.596L17 23.312l5.575-7.021 4.324 5.477 2.514-2.665L31.29 5.699 27.233 8.02z" fill="#fff"/><path d="M45.129 23.828l-3.733-1.415 2.846-7.377-7.86 1.243-.63-3.914-6.23 6.621-.11.117h.001l-2.514 2.665 2.732 3.409 3.43-1.386.504-.204 2.622 3.168-.028-.01L39.654 31l-1.019-3.277 6.494-3.895zm-32.199-2.06L17 23.312l2.046 6.377-6.116-7.92z" fill="#D89F3F"/><path d="M31.29 27.291l2.275-3.704-3.934 1.59 1.659 2.114z" fill="#fff"/></g><defs><clipPath id="clip0_58_924"><path fill="#fff" d="M0 0H199V31H0z"/></clipPath></defs></svg>